<svg width="700" height="119" viewBox="0 0 700 119" fill="none" xmlns="http://www.w3.org/2000/svg">
<path d="M43.365 4.41937C40.5982 4.41937 37.8959 5.23183 35.5995 6.76442C33.303 8.297 31.5046 10.4851 30.444 13.0425C29.3834 15.5999 29.1067 18.4158 29.6416 21.1301C30.1766 23.8445 31.5138 26.3372 33.469 28.2945C35.4242 30.2518 37.9144 31.5813 40.6258 32.126C43.3373 32.6615 46.1502 32.3845 48.6957 31.3228C51.2503 30.261 53.4269 28.4699 54.9671 26.1618C56.498 23.8629 57.3188 21.1486 57.3096 18.3881C57.3096 14.6859 55.834 11.1406 53.2148 8.51858C50.5955 5.89657 47.054 4.42861 43.3557 4.41937H43.365Z" fill="#0F2678"/>
<path d="M43.365 63.267C40.5982 63.267 37.8959 64.0795 35.5995 65.6121C33.303 67.1447 31.5046 69.3327 30.444 71.8901C29.3834 74.4475 29.1067 77.2634 29.6416 79.9778C30.1766 82.6921 31.5138 85.1849 33.469 87.1421C35.4242 89.0994 37.9144 90.4289 40.6258 90.9736C43.3373 91.5091 46.1502 91.2321 48.6957 90.1704C51.2503 89.1087 53.4269 87.3176 54.9671 85.0095C56.498 82.7106 57.3188 79.9962 57.3096 77.2357C57.3096 73.5335 55.834 69.9883 53.2148 67.3662C50.5955 64.7442 47.054 63.2763 43.3557 63.267H43.365Z" fill="#0F2678"/>
<path d="M21.7286 36.1974C19.4321 34.6648 16.7299 33.8431 13.9723 33.8431C10.2648 33.8431 6.7141 35.3203 4.09486 37.9423C1.47563 40.5643 0 44.1188 0 47.8302C0 50.6 0.820817 53.2959 2.35178 55.5947C3.88274 57.8936 6.06851 59.6847 8.62319 60.7465C11.1779 61.8082 13.9816 62.0852 16.693 61.5404C19.4045 61.005 21.8946 59.6663 23.8406 57.709C25.7958 55.7517 27.1238 53.2589 27.6588 50.5446C28.1937 47.8302 27.917 45.0236 26.8656 42.4662C25.805 39.9088 24.0158 37.7299 21.7194 36.1881L21.7286 36.1974Z" fill="#0F2678"/>
<path d="M85.6502 42.457C84.5896 39.8996 82.8004 37.7208 80.4948 36.1882C78.1983 34.6556 75.4961 33.8339 72.7293 33.8432C69.031 33.8432 65.4803 35.3203 62.861 37.9424C60.2418 40.5644 58.7754 44.1189 58.7754 47.8211C58.7754 50.5908 59.5962 53.2959 61.1272 55.5948C62.6581 57.8937 64.8439 59.6848 67.3986 60.7465C69.9533 61.8083 72.7569 62.076 75.4684 61.5405C78.1799 60.9958 80.67 59.6663 82.616 57.7091C84.5712 55.7518 85.8992 53.259 86.4342 50.5447C86.9691 47.8303 86.6924 45.0144 85.6318 42.4663L85.6502 42.457Z" fill="#0F2678"/>
<path fill-rule="evenodd" clip-rule="evenodd" d="M698.764 87.7424C698.035 87.0223 697.067 86.616 696.071 86.616C695.075 86.616 694.107 87.0223 693.378 87.7424C692.649 88.4625 692.207 89.4596 692.142 90.5121C692.207 91.5646 692.649 92.5617 693.378 93.2819C694.107 94.002 695.075 94.4082 696.071 94.4082C697.067 94.4082 698.035 94.002 698.764 93.2819C699.493 92.5617 699.935 91.5646 700 90.5121C699.935 89.4596 699.493 88.4625 698.764 87.7424Z" fill="#0F2678"/>
<path fill-rule="evenodd" clip-rule="evenodd" d="M666.401 30.686C662.472 28.5995 657.843 27.547 652.493 27.547C645.65 27.547 639.757 29.218 634.832 32.5602C631.263 34.9606 628.496 37.9335 626.522 41.4603C624.918 37.6657 622.566 34.6467 619.43 32.4309C614.92 29.1719 609.451 27.5377 603.023 27.5377C596.927 27.5377 591.624 28.9134 587.114 31.6739C583.582 33.8066 580.833 36.6225 578.85 40.0846V28.1655H570.338V93.9929H579.229V59.3805C579.229 54.3672 580.105 50.1018 581.857 46.5935C583.692 43.0021 586.284 40.2785 589.623 38.4412C592.961 36.5209 596.844 35.5607 601.271 35.5607C607.284 35.5607 611.96 37.3611 615.298 40.9525C618.637 44.4608 620.306 49.6864 620.306 56.6292V93.9929H629.197V59.3805C629.197 54.3672 630.073 50.1018 631.825 46.5935C633.661 43.0021 636.206 40.2785 639.462 38.4412C642.8 36.5209 646.729 35.5607 651.239 35.5607C657.252 35.5607 661.882 37.3611 665.147 40.9525C668.486 44.4608 670.155 49.6864 670.155 56.6292V93.9929H679.045V55.7521C679.045 49.4002 677.92 44.1284 675.661 39.9554C673.493 35.7731 670.404 32.6802 666.392 30.6768L666.401 30.686Z" fill="#0F2678"/>
<path fill-rule="evenodd" clip-rule="evenodd" d="M547.347 40.5644C544.7 36.5022 541.278 33.3631 537.073 31.1935C532.397 28.7654 527.14 27.5559 521.293 27.5559C515.031 27.5559 509.396 28.8946 504.379 31.572C499.371 34.2494 495.405 38.007 492.481 42.8541C489.641 47.618 488.22 53.139 488.22 59.4079C488.22 65.6767 489.641 71.2347 492.481 76.0817C495.405 80.9287 499.371 84.7325 504.379 87.493C509.386 90.1704 515.031 91.5091 521.293 91.5091C527.14 91.5091 532.397 90.2535 537.073 87.7515C541.076 85.6004 544.377 82.6183 546.969 78.8145V87.1237C546.969 95.3129 545.004 101.332 541.085 105.182C537.156 109.115 531.023 111.073 522.667 111.073C517.576 111.073 512.734 110.233 508.141 108.561C503.632 106.973 499.832 104.804 496.742 102.043L492.232 108.811C495.654 112.07 500.127 114.581 505.633 116.335C511.148 118.089 516.903 118.966 522.916 118.966C533.771 118.966 541.952 116.289 547.467 110.943C553.065 105.681 555.859 97.3625 555.859 85.9881V28.1745H547.338V40.5552L547.347 40.5644ZM535.072 80.5871C531.318 82.5906 527.011 83.5969 522.169 83.5969C517.327 83.5969 513.112 82.5906 509.267 80.5871C505.513 78.5006 502.543 75.657 500.376 72.0563C498.292 68.3818 497.24 64.1534 497.24 59.3894C497.24 54.6255 498.282 50.4432 500.376 46.8517C502.543 43.2603 505.513 40.4536 509.267 38.4502C513.112 36.3637 517.41 35.3112 522.169 35.3112C526.928 35.3112 531.309 36.3544 535.072 38.4502C538.834 40.4536 541.795 43.2603 543.962 46.8517C546.13 50.4432 547.218 54.6255 547.218 59.3894C547.218 64.1534 546.13 68.3726 543.962 72.0563C541.795 75.6478 538.825 78.4914 535.072 80.5871Z" fill="#0F2678"/>
<path d="M473.539 28.1744H464.648V94.0018H473.539V28.1744Z" fill="#0F2678"/>
<path fill-rule="evenodd" clip-rule="evenodd" d="M469.157 0.966553C467.322 0.966553 465.773 1.59436 464.528 2.84997C463.273 4.0225 462.646 5.48122 462.646 7.23539C462.646 8.98956 463.273 10.4944 464.528 11.7501C465.782 13.0057 467.322 13.6335 469.157 13.6335C470.993 13.6335 472.625 13.0057 473.796 11.7501C475.051 10.4944 475.678 8.95263 475.678 7.10614C475.678 5.25964 475.051 3.88401 473.796 2.72072C472.542 1.5482 471.002 0.966553 469.157 0.966553Z" fill="#0F2678"/>
<path fill-rule="evenodd" clip-rule="evenodd" d="M437.256 40.7123C434.738 36.7423 431.529 33.6402 427.609 31.4337C423.099 28.8393 417.962 27.5468 412.198 27.5468C405.936 27.5468 400.301 28.9686 395.284 31.8122C390.359 34.5727 386.476 38.4596 383.636 43.4728C380.795 48.486 379.375 54.3394 379.375 61.0237C379.375 67.708 380.795 73.4783 383.636 78.5746C386.476 83.5878 390.359 87.5208 395.284 90.3644C400.292 93.208 405.927 94.6298 412.198 94.6298C418.045 94.6298 423.219 93.3373 427.729 90.743C431.769 88.3887 435.07 85.1204 437.625 80.9566V94.002H446.147V0.966553H437.256V40.7123ZM434.12 74.5677C432.036 78.4176 429.113 81.4182 425.35 83.597C421.679 85.6836 417.501 86.7361 412.825 86.7361C408.149 86.7361 404.101 85.6928 400.421 83.597C396.75 81.4274 393.827 78.4176 391.65 74.5677C389.483 70.6347 388.395 66.1292 388.395 61.0237C388.395 55.9181 389.483 51.3296 391.65 47.4797C393.817 43.6297 396.741 40.6661 400.421 38.5796C404.091 36.41 408.232 35.3205 412.825 35.3205C417.418 35.3205 421.679 36.41 425.35 38.5796C429.113 40.6661 432.027 43.639 434.12 47.4797C436.288 51.3296 437.376 55.835 437.376 61.0237C437.376 66.2123 436.288 70.6347 434.12 74.5677Z" fill="#0F2678"/>
<path fill-rule="evenodd" clip-rule="evenodd" d="M361.114 33.9448C356.521 29.6794 349.964 27.5467 341.451 27.5467C336.278 27.5467 331.343 28.3407 326.668 29.9287C321.992 31.4336 317.98 33.6032 314.641 36.4468L318.653 43.0941C321.328 40.7491 324.583 38.8749 328.42 37.4531C332.266 36.0313 336.314 35.3204 340.566 35.3204C346.745 35.3204 351.384 36.8253 354.474 39.8351C357.646 42.8449 359.233 47.1472 359.233 52.7513V56.7674H338.316C332.054 56.7674 327.046 57.6445 323.283 59.3987C319.612 61.0697 316.938 63.3317 315.268 66.1661C313.682 68.9266 312.889 72.0194 312.889 75.4447C312.889 79.2023 313.848 82.5537 315.766 85.4803C317.685 88.3239 320.442 90.5767 324.03 92.2477C327.7 93.8357 332.007 94.6297 336.932 94.6297C343.195 94.6297 348.368 93.3372 352.463 90.7428C355.516 88.8502 357.886 86.4774 359.602 83.6523V94.0019H368.123V53.1206C368.123 44.5067 365.79 38.1179 361.105 33.9355L361.114 33.9448ZM351.218 84.2247C347.631 86.4775 343.324 87.613 338.316 87.613C333.059 87.613 328.964 86.4867 326.04 84.2247C323.117 81.9628 321.66 78.9622 321.66 75.1954C321.66 71.8532 322.868 69.0466 325.293 66.7939C327.802 64.5411 332.229 63.4055 338.574 63.4055H359.242V74.1891C357.573 78.5375 354.898 81.8797 351.227 84.2247H351.218Z" fill="#0F2678"/>
<path fill-rule="evenodd" clip-rule="evenodd" d="M241.449 33.9448C236.857 29.6794 230.299 27.5467 221.787 27.5467C216.613 27.5467 211.679 28.3407 207.003 29.9287C202.327 31.4336 198.315 33.6032 194.976 36.4468L198.988 43.0941C201.663 40.7491 204.918 38.8749 208.755 37.4531C212.601 36.0313 216.65 35.3204 220.901 35.3204C227.081 35.3204 231.72 36.8253 234.809 39.8351C237.982 42.8449 239.568 47.1472 239.568 52.7513V56.7674H218.651C212.389 56.7674 207.381 57.6445 203.618 59.3987C199.947 61.0697 197.273 63.3317 195.604 66.1661C194.017 68.9266 193.224 72.0194 193.224 75.4447C193.224 79.2023 194.183 82.5537 196.102 85.4803C198.02 88.3239 200.777 90.5767 204.365 92.2477C208.036 93.8357 212.343 94.6297 217.268 94.6297C223.53 94.6297 228.704 93.3372 232.799 90.7428C235.851 88.8502 238.221 86.4774 239.937 83.6523V94.0019H248.459V53.1206C248.459 44.5067 246.116 38.1179 241.44 33.9355L241.449 33.9448ZM231.554 84.2247C227.966 86.4775 223.659 87.613 218.651 87.613C213.394 87.613 209.299 86.4867 206.376 84.2247C203.452 81.972 201.995 78.9622 201.995 75.1954C201.995 71.8532 203.203 69.0466 205.629 66.7939C208.137 64.5411 212.564 63.4055 218.909 63.4055H239.577V74.1891C237.908 78.5375 235.233 81.8797 231.563 84.2247H231.554Z" fill="#0F2678"/>
<path fill-rule="evenodd" clip-rule="evenodd" d="M165.187 9.86665C159.847 7.43852 153.456 6.22906 146.023 6.22906H113.208V94.002H122.477V66.2862H146.023C153.456 66.2862 159.838 65.0767 165.187 62.6486C170.537 60.2205 174.622 56.7952 177.463 52.3636C180.386 47.849 181.844 42.5034 181.844 36.3176C181.844 30.1319 180.377 24.574 177.463 20.1424C174.622 15.6277 170.527 12.2025 165.187 9.85742V9.86665ZM165.685 52.5021C161.176 56.2597 154.535 58.1432 145.764 58.1432H122.468V14.2613H145.764C154.535 14.2613 161.176 16.1817 165.685 20.0316C170.278 23.8815 172.575 29.3102 172.575 36.3361C172.575 43.362 170.278 48.6707 165.685 52.5114V52.5021Z" fill="#0F2678"/>
<path fill-rule="evenodd" clip-rule="evenodd" d="M294.562 30.0302C294.451 30.0302 294.341 30.0302 294.23 30.0302C293.999 30.0302 293.778 30.0302 293.557 30.0302C287.839 30.104 285.275 30.8795 281.171 33.4092C277.454 35.625 274.66 38.7271 272.778 42.7156V28.1744H264.256V94.0018H273.147V62.2422C273.147 54.4685 275.111 48.4951 279.031 44.3128C282.96 40.0474 285.616 38.2286 292.551 38.2286H293.64C297.421 38.2563 301.11 39.6504 301.746 40.7213L306.459 34.0001C304.532 32.7168 299.93 30.1317 294.562 30.0302Z" fill="#0F2678"/>
</svg>
